# xmcd
#
# Track frame offsets: 
#        150
#        12902
#        24190
#        36772
#        48992
#        61675
#        74725
#        84662
#        96827
#        107870
#        119847
#        130190
#        142937
#        153450
#        165390
#        177605
#        189790
#        201825
#        213167
#        223655
#        235905
#        249257
#
# Disc length: 3481 seconds
#
# Revision: 5
# Processed by: cddbd v1.5.2PL0 Copyright (c) Steve Scherf et al.
# Submitted via: ExactAudioCopyFreeDBPlugin 1.0
#
DISCID=320d9716
DTITLE=Hank Snow - I've Been Everywhere (The Hank Snow Story Disc 1)
DYEAR=2000
DGENRE=Country
TTITLE0=I'm Movin' On-1950
TTITLE1=With This Ring I Thee Wed-1950
TTITLE2=The Golden Rocket-1950
TTITLE3=Paving The Highway With Tears-1950
TTITLE4=Rhumba Boogie-1951
TTITLE5=You Pass Me By-1951
TTITLE6=Down The Trail Of Aching Hearts-1951(with Anita Carter)
TTITLE7=Bluebird Island-1951(with Anita Carter)
TTITLE8=Music Makin' Mama From Memphis-1951
TTITLE9=The Highest Bidder-1951
TTITLE10=The Goldrush Is Over-1952
TTITLE11=Why Do You Punish Me-1952
TTITLE12=Lady's Man -1952
TTITLE13=Married By The Bible, Divorced By The Law-1952
TTITLE14=I Went To Your Wedding-1952
TTITLE15=The Boogie Woogie Flying Cloud-1952
TTITLE16=The Gal Who Invented Kissin'-1952
TTITLE17=A Fool Such As I-1952
TTITLE18=Spanish Fire Ball-1953
TTITLE19=Between Fire And Water-1953
TTITLE20=I Don't Hurt Anymore-1954
TTITLE21=My Arabian Baby-1954
EXTD=
EXTT0=
EXTT1=
EXTT2=
EXTT3=
EXTT4=
EXTT5=
EXTT6=
EXTT7=
EXTT8=
EXTT9=
EXTT10=
EXTT11=
EXTT12=
EXTT13=
EXTT14=
EXTT15=
EXTT16=
EXTT17=
EXTT18=
EXTT19=
EXTT20=
EXTT21=
PLAYORDER=
